<?xml version="1.0" encoding="utf-8"?>
<!-- Generator: Adobe Illustrator 16.0.4, SVG Export Plug-In . SVG Version: 6.00 Build 0)  -->
<!DOCTYPE svg PUBLIC "-//W3C//DTD SVG 1.0//EN" "http://www.w3.org/TR/2001/REC-SVG-20010904/DTD/svg10.dtd">
<svg version="1.0" id="Layer_1" xmlns="http://www.w3.org/2000/svg" xmlns:xlink="http://www.w3.org/1999/xlink" x="0px" y="0px"
	 width="454px" height="83px" viewBox="0 0 454 83" enable-background="new 0 0 454 83" xml:space="preserve">
<g>
	<path fill="#4CC2E4" d="M26.075,43.512c2.556,0,4.757-0.427,6.602-1.287c1.845-0.86,3.774-2.234,5.786-4.12l4.78,4.906
		c-4.655,5.155-10.305,7.735-16.947,7.735c-6.646,0-12.16-2.14-16.541-6.415c-4.381-4.276-6.571-9.686-6.571-16.226
		S5.415,16.117,9.88,11.754c4.465-4.358,10.105-6.538,16.917-6.538c6.814,0,12.505,2.516,17.075,7.546l-4.719,5.156
		c-2.096-2.011-4.076-3.416-5.941-4.214c-1.866-0.796-4.056-1.195-6.571-1.195c-4.445,0-8.176,1.438-11.195,4.309
		c-3.017,2.871-4.527,6.541-4.527,11.005c0,4.465,1.497,8.196,4.496,11.193C18.411,42.015,21.966,43.512,26.075,43.512z"/>
	<path fill="#4CC2E4" d="M76.332,45.746c-3.354,3.331-7.546,5-12.577,5s-9.225-1.669-12.577-5
		c-3.355-3.335-5.034-7.411-5.034-12.232c0-4.821,1.679-8.899,5.034-12.231c3.352-3.334,7.546-5,12.577-5s9.222,1.666,12.577,5
		c3.354,3.332,5.031,7.41,5.031,12.231C81.363,38.335,79.687,42.411,76.332,45.746z M56.176,41.406
		c1.991,2.035,4.519,3.05,7.58,3.05s5.586-1.016,7.577-3.05c1.991-2.032,2.989-4.662,2.989-7.892c0-3.229-0.998-5.859-2.989-7.894
		c-1.991-2.032-4.516-3.047-7.577-3.047s-5.588,1.016-7.58,3.047c-1.991,2.035-2.986,4.665-2.986,7.894
		C53.19,36.744,54.185,39.374,56.176,41.406z"/>
	<path fill="#4CC2E4" d="M103.893,23.389c-3.48,0-6.101,1.131-7.861,3.396c-1.761,2.265-2.641,5.304-2.641,9.12v14.337h-7.042
		V16.787h7.042v6.727c1.133-2.096,2.674-3.812,4.624-5.156c1.947-1.341,4.012-2.034,6.192-2.075l0.064,7.106
		C104.146,23.389,104.021,23.389,103.893,23.389z"/>
	<path fill="#4CC2E4" d="M110.89,45.966c-3.145-3.186-4.716-7.38-4.716-12.577c0-5.2,1.615-9.35,4.841-12.452
		c3.229-3.104,7.076-4.654,11.541-4.654c4.465,0,8.061,1.886,10.786,5.66V3.581h7.043v46.66h-7.043v-5.03
		c-2.6,3.689-6.395,5.535-11.382,5.535C117.725,50.746,114.035,49.151,110.89,45.966z M113.219,33.67
		c0,3.209,1.026,5.819,3.081,7.83c2.052,2.011,4.465,3.019,7.231,3.019c2.766,0,5.115-1.016,7.045-3.05
		c1.926-2.034,2.891-4.644,2.891-7.83c0-3.186-0.965-5.85-2.891-7.986c-1.93-2.14-4.299-3.209-7.109-3.209
		c-2.807,0-5.218,1.069-7.231,3.209C114.224,27.79,113.219,30.464,113.219,33.67z"/>
	<path fill="#4CC2E4" d="M174.557,45.746c-3.354,3.331-7.545,5-12.576,5s-9.225-1.669-12.579-5
		c-3.354-3.335-5.033-7.411-5.033-12.232c0-4.821,1.68-8.899,5.033-12.231c3.354-3.334,7.547-5,12.579-5s9.223,1.666,12.576,5
		c3.355,3.332,5.031,7.41,5.031,12.231C179.588,38.335,177.912,42.411,174.557,45.746z M154.4,41.406
		c1.99,2.035,4.52,3.05,7.58,3.05s5.586-1.016,7.576-3.05c1.99-2.032,2.988-4.662,2.988-7.892c0-3.229-0.998-5.859-2.988-7.894
		c-1.99-2.032-4.516-3.047-7.576-3.047s-5.59,1.016-7.58,3.047c-1.99,2.035-2.987,4.665-2.987,7.894
		C151.414,36.744,152.41,39.374,154.4,41.406z"/>
	<path fill="#4CC2E4" d="M193.877,50.241L180.42,16.787h7.293l10.189,25.279l10.188-25.279h7.295l-13.457,33.454H193.877z"/>
	<path fill="#4CC2E4" d="M244.645,50.241h-6.416v-4.465c-2.766,3.313-6.477,4.97-11.131,4.97c-3.48,0-6.361-0.985-8.646-2.956
		c-2.285-1.97-3.426-4.601-3.426-7.894c0-3.291,1.215-5.752,3.646-7.387c2.43-1.635,5.721-2.454,9.871-2.454h9.121v-1.256
		c0-4.445-2.475-6.666-7.422-6.666c-3.104,0-6.33,1.131-9.686,3.396l-3.141-4.404c4.062-3.227,8.676-4.841,13.832-4.841
		c3.941,0,7.16,0.995,9.654,2.986c2.492,1.994,3.742,5.125,3.742,9.401V50.241z M237.6,37.79v-2.83h-7.922
		c-5.074,0-7.611,1.594-7.611,4.78c0,1.635,0.631,2.881,1.887,3.741c1.26,0.859,3.01,1.289,5.254,1.289
		c2.24,0,4.201-0.629,5.877-1.886C236.76,41.626,237.6,39.929,237.6,37.79z"/>
	<path fill="#4CC2E4" d="M392.311,58.222c1.273,1.073,1.905,2.722,1.896,4.945c-0.009,2.224-0.669,3.848-1.978,4.876
		c-1.309,1.027-3.312,1.535-6.008,1.523l-3.255-0.015l-0.023,5.384l-3.099-0.014l0.079-18.356l6.302,0.027
		C389.009,56.604,391.037,57.148,392.311,58.222z M390.085,65.788c0.624-0.654,0.939-1.615,0.944-2.885
		c0.006-1.268-0.385-2.168-1.17-2.696s-2.019-0.797-3.699-0.804l-3.15-0.014l-0.031,7.353l3.597,0.016
		C388.29,66.765,389.461,66.442,390.085,65.788z"/>
	<path fill="#4CC2E4" d="M399.326,75.01l-2.94-0.013l0.084-19.483l2.94,0.013L399.326,75.01z"/>
	<path fill="#4CC2E4" d="M411.377,68.663l0.032-7.562l2.94,0.013l-0.06,13.971l-2.94-0.013l0.011-2.548
		c-0.477,0.856-1.132,1.527-1.966,2.013c-0.833,0.487-1.731,0.729-2.694,0.726c-1.576-0.008-2.848-0.495-3.814-1.462
		c-0.968-0.967-1.447-2.359-1.439-4.182l0.037-8.561l2.941,0.013l-0.033,7.668c-0.012,2.573,1.051,3.864,3.187,3.874
		c1.016,0.004,1.901-0.329,2.656-0.999C410.989,70.942,411.371,69.959,411.377,68.663z"/>
	<path fill="#4CC2E4" d="M430.524,61.188l-0.053,12.185c-0.011,2.469-0.688,4.317-2.033,5.546c-1.344,1.228-3.066,1.837-5.168,1.828
		c-2.101-0.01-3.997-0.673-5.689-1.994l1.4-2.226c1.361,1.038,2.738,1.561,4.13,1.566c1.393,0.006,2.496-0.348,3.313-1.062
		c0.816-0.715,1.229-1.857,1.235-3.435l0.008-1.785c-0.44,0.821-1.069,1.476-1.886,1.962s-1.732,0.728-2.747,0.723
		c-1.856-0.008-3.376-0.662-4.561-1.962c-1.186-1.302-1.773-2.914-1.765-4.84c0.008-1.926,0.609-3.534,1.806-4.824
		c1.196-1.291,2.718-1.932,4.565-1.924c1.846,0.008,3.344,0.776,4.494,2.304l0.009-2.074L430.524,61.188z M419.599,67.587
		c-0.005,1.146,0.346,2.138,1.051,2.973c0.705,0.834,1.657,1.253,2.856,1.259c1.199,0.005,2.172-0.393,2.92-1.195
		c0.748-0.801,1.125-1.803,1.13-3.002c0.006-1.198-0.367-2.215-1.116-3.051c-0.75-0.834-1.719-1.255-2.909-1.26
		c-1.191-0.005-2.143,0.42-2.855,1.274C419.963,65.44,419.604,66.441,419.599,67.587z"/>
	<path fill="#4CC2E4" d="M432.974,58.423c-0.366-0.37-0.548-0.807-0.546-1.315c0.003-0.507,0.188-0.944,0.558-1.311
		c0.369-0.366,0.807-0.548,1.314-0.546c0.507,0.003,0.944,0.188,1.311,0.558s0.548,0.809,0.546,1.315
		c-0.003,0.508-0.188,0.943-0.558,1.311c-0.369,0.366-0.808,0.549-1.315,0.547C433.776,58.979,433.34,58.793,432.974,58.423z
		 M435.658,75.188l-2.94-0.013l0.061-13.97l2.939,0.013L435.658,75.188z"/>
	<path fill="#4CC2E4" d="M440.886,67.657l-0.032,7.562l-2.94-0.013l0.06-13.97l2.941,0.013l-0.011,2.546
		c0.477-0.854,1.131-1.526,1.964-2.013c0.834-0.485,1.732-0.729,2.695-0.724c1.576,0.007,2.848,0.494,3.815,1.462
		c0.967,0.966,1.447,2.359,1.438,4.18l-0.036,8.562l-2.942-0.013l0.033-7.667c0.011-2.575-1.051-3.866-3.187-3.875
		c-1.015-0.004-1.901,0.329-2.657,0.999C441.271,65.378,440.892,66.361,440.886,67.657z"/>
	<path fill="#1D7582" d="M270.967,49.473l-8.303-0.036l-17.48-44.034l8.301,0.036l13.379,32.886l13.66-32.77l8.301,0.036
		L270.967,49.473z"/>
	<path fill="#1D7582" d="M313.807,34.32l0.078-18.109l7.041,0.03l-0.145,33.455l-7.041-0.03l0.027-6.1
		c-1.141,2.05-2.711,3.656-4.707,4.819c-1.996,1.167-4.148,1.746-6.453,1.736c-3.775-0.017-6.818-1.185-9.135-3.499
		c-2.316-2.316-3.467-5.651-3.447-10.015l0.088-20.5l7.045,0.03l-0.08,18.363c-0.027,6.162,2.518,9.253,7.631,9.275
		c2.432,0.011,4.555-0.787,6.361-2.393C312.879,39.779,313.793,37.424,313.807,34.32z"/>
	<path fill="#1D7582" d="M335.805,13.556l-0.012,2.768l8.805,0.038l-0.023,5.657l-8.807-0.037l-0.119,27.796l-7.043-0.03
		l0.121-27.797l-4.215-0.018l0.025-5.658l4.213,0.018l0.012-2.578c0.016-3.521,1.084-6.317,3.213-8.383
		c2.125-2.066,4.686-3.091,7.684-3.078c2.996,0.013,5.727,1.135,8.193,3.368l-2.914,4.956c-1.379-1.475-2.82-2.215-4.33-2.222
		c-1.51-0.007-2.688,0.462-3.527,1.399C336.236,10.696,335.811,11.964,335.805,13.556z"/>
	<path fill="#1D7582" d="M377.428,45.466c-3.369,3.317-7.566,4.968-12.598,4.946c-5.031-0.022-9.217-1.708-12.555-5.055
		c-3.34-3.349-5.002-7.432-4.98-12.252c0.02-4.822,1.717-8.893,5.086-12.211c3.367-3.319,7.566-4.966,12.598-4.945
		c5.031,0.022,9.215,1.706,12.555,5.054c3.342,3.346,5,7.432,4.979,12.254C382.49,38.078,380.797,42.146,377.428,45.466z
		 M357.291,41.039c1.982,2.044,4.506,3.07,7.566,3.084c3.061,0.013,5.59-0.992,7.59-3.019c2-2.022,3.01-4.648,3.023-7.877
		c0.014-3.23-0.973-5.864-2.955-7.908c-1.982-2.039-4.504-3.065-7.564-3.079s-5.592,0.991-7.592,3.014
		c-2,2.027-3.006,4.651-3.02,7.882C354.326,36.364,355.309,39,357.291,41.039z"/>
	<path fill="#1D7582" d="M404.084,23.243c-3.479-0.016-6.104,1.104-7.873,3.36c-1.771,2.258-2.664,5.293-2.68,9.107l-0.062,14.338
		l-7.043-0.03l0.145-33.455l7.043,0.031l-0.029,6.728c1.143-2.091,2.689-3.801,4.645-5.136c1.953-1.333,4.021-2.018,6.203-2.049
		l0.031,7.107C404.338,23.244,404.213,23.243,404.084,23.243z"/>
	<path fill="#1D7582" d="M410.004,10.008c-0.877-0.887-1.312-1.935-1.307-3.15c0.004-1.215,0.449-2.262,1.332-3.139
		c0.885-0.877,1.934-1.312,3.148-1.307s2.262,0.449,3.139,1.334s1.312,1.935,1.307,3.15c-0.004,1.216-0.449,2.26-1.332,3.139
		c-0.885,0.877-1.936,1.313-3.15,1.308S410.881,10.893,410.004,10.008z M416.432,50.156l-7.041-0.03l0.145-33.454l7.041,0.03
		L416.432,50.156z"/>
	<path fill="#1D7582" d="M450.725,50.317l-6.414-0.027l0.02-4.465c-2.783,3.301-6.498,4.94-11.152,4.921
		c-3.48-0.016-6.357-1.012-8.635-2.993c-2.275-1.98-3.408-4.616-3.393-7.909c0.014-3.291,1.24-5.746,3.678-7.37
		c2.439-1.625,5.732-2.431,9.883-2.413l9.119,0.04l0.006-1.256c0.02-4.445-2.445-6.677-7.391-6.698
		c-3.104-0.014-6.338,1.104-9.701,3.354l-3.123-4.418c4.078-3.209,8.699-4.804,13.855-4.781c3.939,0.017,7.154,1.027,9.641,3.027
		c2.484,2.005,3.719,5.141,3.699,9.418L450.725,50.317z M443.732,37.836l0.012-2.83l-7.92-0.034
		c-5.074-0.021-7.617,1.562-7.631,4.747c-0.008,1.634,0.617,2.883,1.869,3.75c1.256,0.864,3.004,1.302,5.248,1.312
		c2.242,0.01,4.203-0.61,5.887-1.861C442.879,41.668,443.723,39.975,443.732,37.836z"/>
</g>
</svg>
